<svg width="38" height="38" viewBox="0 0 38 38" xmlns="http://www.w3.org/2000/svg">
    <path fill-rule="evenodd" clip-rule="evenodd"
          d="M15.8332 7.91667C15.8332 6.16776 17.2509 4.75 18.9998 4.75C20.7487 4.75 22.1665 6.16776 22.1665 7.91667C22.1665 9.66557 20.7487 11.0833 18.9998 11.0833C17.2509 11.0833 15.8332 9.66557 15.8332 7.91667ZM15.8332 19C15.8332 17.2511 17.2509 15.8333 18.9998 15.8333C20.7487 15.8333 22.1665 17.2511 22.1665 19C22.1665 20.7489 20.7487 22.1667 18.9998 22.1667C17.2509 22.1667 15.8332 20.7489 15.8332 19ZM18.9998 26.9167C17.2509 26.9167 15.8332 28.3344 15.8332 30.0833C15.8332 31.8322 17.2509 33.25 18.9998 33.25C20.7487 33.25 22.1665 31.8322 22.1665 30.0833C22.1665 28.3344 20.7487 26.9167 18.9998 26.9167Z"
          fill="#4B494C"/>
</svg>
